<svg width="26" height="22" viewBox="0 0 26 22" fill="none" xmlns="http://www.w3.org/2000/svg">
<path d="M18.4168 20.75V18.5833C18.4168 17.4341 17.9603 16.3319 17.1476 15.5192C16.335 14.7065 15.2328 14.25 14.0835 14.25H5.41683C4.26756 14.25 3.16536 14.7065 2.3527 15.5192C1.54004 16.3319 1.0835 17.4341 1.0835 18.5833V20.75M24.9168 20.75V18.5833C24.9161 17.6232 24.5965 16.6905 24.0083 15.9317C23.4201 15.1728 22.5965 14.6309 21.6668 14.3908M17.3335 1.39083C18.2656 1.62949 19.0918 2.17159 19.6818 2.93167C20.2718 3.69175 20.592 4.62657 20.592 5.58875C20.592 6.55093 20.2718 7.48575 19.6818 8.24583C19.0918 9.00591 18.2656 9.54801 17.3335 9.78667M14.0835 5.58333C14.0835 7.97657 12.1434 9.91667 9.75016 9.91667C7.35693 9.91667 5.41683 7.97657 5.41683 5.58333C5.41683 3.1901 7.35693 1.25 9.75016 1.25C12.1434 1.25 14.0835 3.1901 14.0835 5.58333Z" stroke="#D2AC71" stroke-width="2" stroke-linecap="round" stroke-linejoin="round"/>
</svg>